<svg width="24" height="24" viewBox="0 0 24 24" fill="none" xmlns="http://www.w3.org/2000/svg">
<g clip-path="url(#clip0_206_6086)">
<path d="M17 12.6842V5.57895C17 5.16018 16.8344 4.75857 16.5397 4.46246C16.245 4.16635 15.8453 4 15.4286 4H7.57143C7.15466 4 6.75496 4.16635 6.46026 4.46246C6.16556 4.75857 6 5.16018 6 5.57895V17.4211C6 17.8398 6.16556 18.2414 6.46026 18.5375C6.75496 18.8336 7.15466 19 7.57143 19H13.0714" stroke="#9E9BAC" stroke-width="2" stroke-linecap="round" stroke-linejoin="round"/>
<path d="M16 20.5C17.933 20.5 19.5 18.933 19.5 17C19.5 15.067 17.933 13.5 16 13.5C14.067 13.5 12.5 15.067 12.5 17C12.5 18.933 14.067 20.5 16 20.5Z" stroke="#9E9BAC" stroke-width="2" stroke-miterlimit="10"/>
<path d="M16.7391 16C16.2727 16 16.0859 16.3525 16 16.5312C15.9141 16.3525 15.7273 16 15.2609 16C14.725 16 14.4523 16.4737 14.5069 16.9037C14.5546 17.2787 14.8464 17.64 15.1205 17.9037C15.3854 18.1353 15.6809 18.3356 16 18.5C16.3193 18.3349 16.6148 18.1337 16.8795 17.9012C17.1522 17.64 17.4454 17.2762 17.4931 16.9012C17.5477 16.4737 17.275 16 16.7391 16Z" fill="#9E9BAC"/>
</g>
<defs>
<clipPath id="clip0_206_6086">
<rect width="24" height="24" fill="white"/>
</clipPath>
</defs>
</svg>
