<svg width="24" height="24" viewBox="0 0 24 24" fill="none" xmlns="http://www.w3.org/2000/svg">
<path d="M11.5 4C11.2404 4.01493 10.9931 4.11604 10.7968 4.28748L3.51 10.1691C3.35244 10.2945 3.22484 10.4538 3.13658 10.6353C3.04832 10.8169 3.00165 11.016 3 11.218V19.6325C3 19.9952 3.14329 20.343 3.39834 20.5995C3.65338 20.8559 3.99931 21 4.36 21H7.12636C7.30561 21.001 7.48329 20.9664 7.64919 20.8981C7.81508 20.8299 7.96592 20.7293 8.09303 20.6022C8.22013 20.4751 8.321 20.324 8.38983 20.1576C8.45866 19.9912 8.49409 19.8128 8.49409 19.6325V17.8766C8.49409 17.5139 8.63738 17.1661 8.89243 16.9096C9.14748 16.6532 9.4934 16.5091 9.85409 16.5091H13.1459C13.3245 16.5091 13.5014 16.5445 13.6664 16.6132C13.8314 16.6819 13.9813 16.7827 14.1076 16.9096C14.2339 17.0366 14.334 17.1874 14.4024 17.3533C14.4707 17.5192 14.5059 17.697 14.5059 17.8766V19.6325C14.5059 19.8128 14.5413 19.9912 14.6102 20.1576C14.679 20.324 14.7799 20.4751 14.907 20.6022C15.0341 20.7293 15.1849 20.8299 15.3508 20.8981C15.5167 20.9664 15.6944 21.001 15.8736 21H18.64C19.0007 21 19.3466 20.8559 19.6017 20.5995C19.8567 20.343 20 19.9952 20 19.6325V11.218C19.9983 11.016 19.9517 10.8169 19.8634 10.6353C19.7752 10.4538 19.6476 10.2945 19.49 10.1691L12.2032 4.30302C12.0074 4.1284 11.7608 4.02211 11.5 4Z" stroke="#9E9BAC" stroke-width="2" stroke-linecap="round" stroke-linejoin="round"/>
</svg>
