<svg width="24" height="24" viewBox="0 0 24 24" fill="none" xmlns="http://www.w3.org/2000/svg">
<mask id="mask0_1014_21912" style="mask-type:luminance" maskUnits="userSpaceOnUse" x="2" y="2" width="20" height="20">
<path fill-rule="evenodd" clip-rule="evenodd" d="M2 12C2 6.48 6.48 2 12 2C17.52 2 22 6.48 22 12C22 17.52 17.52 22 12 22C6.48 22 2 17.52 2 12ZM4 12C4 16.42 7.58 20 12 20C16.42 20 20 16.42 20 12C20 7.58 16.42 4 12 4C7.58 4 4 7.58 4 12Z" fill="white"/>
</mask>
<g mask="url(#mask0_1014_21912)">
<rect width="24" height="24" fill="url(#paint0_linear_1014_21912)"/>
</g>
<defs>
<linearGradient id="paint0_linear_1014_21912" x1="22.9474" y1="53.2364" x2="-21.3592" y2="44.309" gradientUnits="userSpaceOnUse">
<stop stop-color="#EC764F"/>
<stop offset="0.396134" stop-color="#72465D"/>
<stop offset="1" stop-color="#2E5DF3"/>
</linearGradient>
</defs>
</svg>
