<svg width="24" height="24" viewBox="0 0 24 24" fill="none" xmlns="http://www.w3.org/2000/svg">
<path fill-rule="evenodd" clip-rule="evenodd" d="M5 12C5 15.866 8.13401 19 12 19C15.866 19 19 15.866 19 12C19 8.13401 15.866 5 12 5C8.13401 5 5 8.13401 5 12ZM12 3C7.02944 3 3 7.02944 3 12C3 16.9706 7.02944 21 12 21C16.9706 21 21 16.9706 21 12C21 7.02944 16.9706 3 12 3ZM16.7319 9.31854C17.1082 9.72274 17.0857 10.3555 16.6815 10.7319L11.3117 15.7319C10.9277 16.0894 10.3327 16.0894 9.94874 15.7319L7.31854 13.2828C6.91435 12.9064 6.89178 12.2737 7.26814 11.8695C7.6445 11.4653 8.27726 11.4427 8.68146 11.8191L10.6302 13.6336L15.3185 9.26814C15.7227 8.89178 16.3555 8.91435 16.7319 9.31854Z" fill="#9E9BAC"/>
</svg>
