<svg width="24" height="24" viewBox="0 0 24 24" fill="none" xmlns="http://www.w3.org/2000/svg">
<path d="M18.2497 4.40137C16.6519 3.07153 14.6715 2.20091 12.4806 2V3.92301C14.1358 4.10478 15.6474 4.76492 16.8911 5.75991L18.2497 4.40137Z" fill="#9E9BAC"/>
<path d="M10.5672 3.92301V2C8.37631 2.19134 6.3959 3.07153 4.79818 4.40137L6.15672 5.75991C7.40045 4.76492 8.91207 4.10478 10.5672 3.92301Z" fill="#9E9BAC"/>
<path d="M4.80774 7.10888L3.4492 5.75034C2.11936 7.34806 1.24875 9.32847 1.04784 11.5194H2.97084C3.15262 9.86424 3.81276 8.35262 4.80774 7.10888Z" fill="#9E9BAC"/>
<path d="M20.077 11.5194H22C21.7991 9.32847 20.9285 7.34806 19.5986 5.75034L18.2401 7.10888C19.2351 8.35262 19.8952 9.86424 20.077 11.5194Z" fill="#9E9BAC"/>
<path d="M6.74032 12.4761L10.0314 13.9686L11.5239 17.2597L13.0164 13.9686L16.3075 12.4761L13.0164 10.9836L11.5239 7.69248L10.0314 10.9836L6.74032 12.4761Z" fill="#9E9BAC"/>
<path d="M11.5239 21.0866C8.54852 21.0866 5.92711 19.5654 4.38679 17.2597H6.74032V15.3462H1V21.0866H2.91344V18.5034C4.81731 21.2205 7.95535 23 11.5239 23C16.1831 23 20.1344 19.9672 21.5121 15.7672L19.6369 15.3367C18.4601 18.6756 15.2743 21.0866 11.5239 21.0866Z" fill="#9E9BAC"/>
</svg>
