<svg width="24" height="24" viewBox="0 0 24 24" fill="none" xmlns="http://www.w3.org/2000/svg">
<path d="M11.4915 14.9942C10.861 14.9911 10.2481 14.7864 9.74239 14.4099C9.23669 14.0334 8.86478 13.5049 8.68109 12.9018C8.4974 12.2986 8.51157 11.6526 8.72152 11.0581C8.93148 10.4636 9.3262 9.95194 9.84792 9.59796C10.3696 9.24398 10.991 9.06628 11.6209 9.09087C12.2509 9.11546 12.8565 9.34104 13.3491 9.73461C13.8416 10.1282 14.1952 10.6691 14.3582 11.2781C14.5212 11.8871 14.485 12.5323 14.2548 13.1193C14.0436 13.6785 13.6647 14.1587 13.17 14.4943C12.6754 14.8299 12.0891 15.0045 11.4915 14.9942Z" stroke="#9E9BAC" stroke-width="2"/>
<path d="M18.6775 10.467L19.5529 9.74836C19.7592 9.60948 19.9072 9.39956 19.9686 9.1586C20.03 8.91764 20.0007 8.6625 19.8861 8.4418L18.7886 6.54077C18.6735 6.33306 18.4865 6.17457 18.2627 6.09516C18.0389 6.01575 17.7938 6.02089 17.5735 6.10961L16.3257 6.5865C16.1814 6.64248 16.0255 6.66222 15.8718 6.644C15.718 6.62578 15.5711 6.57015 15.4438 6.48198C15.0841 6.22883 14.7013 6.01011 14.3006 5.8287C14.1576 5.76606 14.0332 5.66762 13.9394 5.54289C13.8456 5.41816 13.7855 5.27135 13.7649 5.11663L13.5428 3.81008C13.5069 3.58334 13.3909 3.37697 13.2159 3.22837C13.041 3.07976 12.8186 2.99875 12.589 3.00001H10.394C10.1644 2.99875 9.94201 3.07976 9.76704 3.22837C9.59207 3.37697 9.47612 3.58334 9.4402 3.81008L9.21809 5.11663C9.19692 5.27115 9.13659 5.41768 9.04283 5.54232C8.94907 5.66695 8.825 5.76553 8.6824 5.8287C8.28031 6.0115 7.8955 6.23014 7.53264 6.48198C7.40685 6.57065 7.26097 6.62663 7.10815 6.64488C6.95534 6.66312 6.80038 6.64306 6.65725 6.5865L5.40949 6.10961C5.194 6.0293 4.95703 6.02789 4.74059 6.10561C4.52416 6.18334 4.34223 6.33519 4.22706 6.53424L3.12956 8.42874C3.01446 8.62807 2.97425 8.86193 3.01617 9.08825C3.05808 9.31458 3.17936 9.51853 3.3582 9.66343L4.35772 10.48C4.48175 10.5829 4.57831 10.7149 4.63874 10.8643C4.69917 11.0136 4.72158 11.1757 4.70395 11.3358C4.66908 11.7706 4.66908 12.2076 4.70395 12.6424C4.71746 12.8009 4.69243 12.9603 4.63101 13.107C4.56958 13.2538 4.47358 13.3835 4.35118 13.4851L3.3582 14.2952C3.18154 14.4417 3.06235 14.646 3.02171 14.872C2.98107 15.0979 3.02158 15.3309 3.13609 15.5299L4.23359 17.4309C4.34876 17.6299 4.53069 17.7818 4.74713 17.8595C4.96356 17.9372 5.20053 17.9358 5.41602 17.8555L6.56579 17.4178C6.71114 17.3613 6.86814 17.3412 7.02303 17.3595C7.17792 17.3777 7.32599 17.4336 7.45424 17.5223C7.84522 17.81 8.26568 18.0553 8.70853 18.254C8.85157 18.321 8.97589 18.4222 9.07047 18.5487C9.16505 18.6752 9.22697 18.823 9.25075 18.9791L9.44674 20.1812C9.48265 20.4079 9.5986 20.6143 9.77357 20.7629C9.94854 20.9115 10.171 20.9925 10.4005 20.9912H12.5955C12.8251 20.9925 13.0475 20.9115 13.2225 20.7629C13.3974 20.6143 13.5134 20.4079 13.5493 20.1812L13.7453 18.9791C13.7697 18.8224 13.8318 18.6739 13.9262 18.5465C14.0207 18.4191 14.1447 18.3164 14.2875 18.2475C14.7307 18.0521 15.1513 17.8089 15.5418 17.5223C15.6693 17.432 15.8175 17.3751 15.9727 17.3568C16.1279 17.3386 16.2852 17.3595 16.4303 17.4178L17.58 17.8555C17.7955 17.9358 18.0325 17.9372 18.2489 17.8595C18.4654 17.7818 18.6473 17.6299 18.7625 17.4309L19.86 15.5299C19.9751 15.3305 20.0153 15.0967 19.9733 14.8703C19.9314 14.644 19.8102 14.4401 19.6313 14.2952L18.6775 13.5112C18.5451 13.4111 18.4407 13.2786 18.3743 13.1264C18.3079 12.9742 18.2819 12.8075 18.2986 12.6424C18.3472 12.2082 18.3472 11.77 18.2986 11.3358C18.2819 11.1706 18.3079 11.0039 18.3743 10.8518C18.4407 10.6996 18.5451 10.5671 18.6775 10.467Z" stroke="#9E9BAC" stroke-width="2" stroke-linecap="round" stroke-linejoin="round"/>
</svg>
