<svg width="24" height="24" viewBox="0 0 24 24" fill="none" xmlns="http://www.w3.org/2000/svg">
<path fill-rule="evenodd" clip-rule="evenodd" d="M21 3H3C1.9 3 1 3.9 1 5V17C1 18.1 1.9 19 3 19H8V21H16V19H21C22.1 19 23 18.1 23 17V5C23 3.9 22.1 3 21 3ZM9 15L16 11L9 7V15Z" fill="url(#paint0_linear_670_69975)"/>
<path d="M8 19H8.05V18.95H8V19ZM8 21H7.95V21.05H8V21ZM16 21V21.05H16.05V21H16ZM16 19V18.95H15.95V19H16ZM16 11L16.0248 11.0434L16.1008 11L16.0248 10.9566L16 11ZM9 15H8.95V15.0862L9.02481 15.0434L9 15ZM9 7L9.02481 6.95659L8.95 6.91384V7H9ZM3 3.05H21V2.95H3V3.05ZM1.05 5C1.05 3.92761 1.92761 3.05 3 3.05V2.95C1.87239 2.95 0.95 3.87239 0.95 5H1.05ZM1.05 17V5H0.95V17H1.05ZM3 18.95C1.92761 18.95 1.05 18.0724 1.05 17H0.95C0.95 18.1276 1.87239 19.05 3 19.05V18.95ZM8 18.95H3V19.05H8V18.95ZM8.05 21V19H7.95V21H8.05ZM16 20.95H8V21.05H16V20.95ZM15.95 19V21H16.05V19H15.95ZM21 18.95H16V19.05H21V18.95ZM22.95 17C22.95 18.0724 22.0724 18.95 21 18.95V19.05C22.1276 19.05 23.05 18.1276 23.05 17H22.95ZM22.95 5V17H23.05V5H22.95ZM21 3.05C22.0724 3.05 22.95 3.92761 22.95 5H23.05C23.05 3.87239 22.1276 2.95 21 2.95V3.05ZM15.9752 10.9566L8.97519 14.9566L9.02481 15.0434L16.0248 11.0434L15.9752 10.9566ZM8.97519 7.04341L15.9752 11.0434L16.0248 10.9566L9.02481 6.95659L8.97519 7.04341ZM9.05 15V7H8.95V15H9.05Z" fill="url(#paint1_linear_670_69975)"/>
<defs>
<linearGradient id="paint0_linear_670_69975" x1="22.0351" y1="42.9273" x2="-17.8116" y2="33.1144" gradientUnits="userSpaceOnUse">
<stop stop-color="#EC764F"/>
<stop offset="0.396134" stop-color="#72465D"/>
<stop offset="1" stop-color="#2E5DF3"/>
</linearGradient>
<linearGradient id="paint1_linear_670_69975" x1="22.0351" y1="42.9273" x2="-17.8116" y2="33.1144" gradientUnits="userSpaceOnUse">
<stop stop-color="#EC764F"/>
<stop offset="0.396134" stop-color="#72465D"/>
<stop offset="1" stop-color="#2E5DF3"/>
</linearGradient>
</defs>
</svg>
