<svg width="24" height="24" viewBox="0 0 24 24" fill="none" xmlns="http://www.w3.org/2000/svg">
<path fill-rule="evenodd" clip-rule="evenodd" d="M16.9625 6.97487H20.65C19.45 4.90201 17.5375 3.29397 15.2375 2.50251C15.9875 3.89699 16.5625 5.40452 16.9625 6.97487ZM14.3875 6.97487C13.85 5.17839 13.0375 3.50754 12 2C10.9625 3.50754 10.15 5.17839 9.6125 6.97487H14.3875ZM2 12C2 12.8668 2.125 13.7085 2.325 14.5126H6.55C6.45 13.6834 6.375 12.8543 6.375 12C6.375 11.1457 6.45 10.3166 6.55 9.48744H2.325C2.125 10.2915 2 11.1332 2 12ZM7.0375 17.0251H3.35C4.55 19.1106 6.4625 20.706 8.7625 21.4975C8.0125 20.103 7.4375 18.5955 7.0375 17.0251ZM3.35 6.97487H7.0375C7.4375 5.40452 8.0125 3.89699 8.7625 2.50251C6.4625 3.29397 4.55 4.88945 3.35 6.97487ZM9.6125 17.0251C10.15 18.8216 10.9625 20.4925 12 22C13.0375 20.4925 13.85 18.8216 14.3875 17.0251H9.6125ZM8.875 12C8.875 12.8543 8.9625 13.6834 9.075 14.5126H14.925C15.0375 13.6834 15.125 12.8543 15.125 12C15.125 11.1457 15.0375 10.304 14.925 9.48744H9.075C8.9625 10.304 8.875 11.1457 8.875 12ZM16.9625 17.0251C16.5625 18.5955 15.9875 20.103 15.2375 21.4975C17.5375 20.706 19.45 19.098 20.65 17.0251H16.9625ZM17.625 12C17.625 12.8543 17.55 13.6834 17.45 14.5126H21.675C21.875 13.7085 22 12.8668 22 12C22 11.1332 21.875 10.2915 21.675 9.48744H17.45C17.55 10.3166 17.625 11.1457 17.625 12Z" fill="url(#paint0_linear_670_70738)"/>
<defs>
<linearGradient id="paint0_linear_670_70738" x1="21.1228" y1="46.3636" x2="-15.7993" y2="38.9242" gradientUnits="userSpaceOnUse">
<stop stop-color="#EC764F"/>
<stop offset="0.396134" stop-color="#72465D"/>
<stop offset="1" stop-color="#2E5DF3"/>
</linearGradient>
</defs>
</svg>
