<svg width="24" height="24" viewBox="0 0 24 24" fill="none" xmlns="http://www.w3.org/2000/svg">
<g clip-path="url(#clip0_206_7989)">
<path d="M17 12.6842V5.57895C17 5.16018 16.8344 4.75857 16.5397 4.46246C16.245 4.16635 15.8453 4 15.4286 4H7.57143C7.15466 4 6.75496 4.16635 6.46026 4.46246C6.16556 4.75857 6 5.16018 6 5.57895V17.4211C6 17.8398 6.16556 18.2414 6.46026 18.5375C6.75496 18.8336 7.15466 19 7.57143 19H13.0714" stroke="url(#paint0_linear_206_7989)" stroke-width="2" stroke-linecap="round" stroke-linejoin="round"/>
<path d="M16.7391 16C16.2727 16 16.0859 16.3525 16 16.5312C15.9141 16.3525 15.7273 16 15.2609 16C14.725 16 14.4523 16.4737 14.5069 16.9037C14.5546 17.2787 14.8464 17.64 15.1205 17.9037C15.3854 18.1353 15.6809 18.3356 16 18.5C16.3193 18.3349 16.6148 18.1337 16.8795 17.9012C17.1522 17.64 17.4454 17.2762 17.4931 16.9012C17.5477 16.4737 17.275 16 16.7391 16Z" fill="url(#paint1_linear_206_7989)"/>
<path d="M8 7C8 6.44771 8.44772 6 9 6H14C14.5523 6 15 6.44772 15 7V13.0858C15 13.351 14.8946 13.6054 14.7071 13.7929L13.6147 14.8853C13.5387 14.9613 13.4755 15.049 13.4274 15.1451L12.7764 16.4472C12.607 16.786 12.2607 17 11.882 17H9C8.44772 17 8 16.5523 8 16V7Z" fill="url(#paint2_linear_206_7989)"/>
<path d="M16 20.5C17.933 20.5 19.5 18.933 19.5 17C19.5 15.067 17.933 13.5 16 13.5C14.067 13.5 12.5 15.067 12.5 17C12.5 18.933 14.067 20.5 16 20.5Z" stroke="url(#paint3_linear_206_7989)" stroke-width="2" stroke-miterlimit="10"/>
</g>
<defs>
<linearGradient id="paint0_linear_206_7989" x1="16.5175" y1="37.2727" x2="-4.16257" y2="34.217" gradientUnits="userSpaceOnUse">
<stop stop-color="#EC764F"/>
<stop offset="0.396134" stop-color="#72465D"/>
<stop offset="1" stop-color="#2E5DF3"/>
</linearGradient>
<linearGradient id="paint1_linear_206_7989" x1="17.3684" y1="21.5455" x2="11.9236" y2="20.2289" gradientUnits="userSpaceOnUse">
<stop stop-color="#EC764F"/>
<stop offset="0.396134" stop-color="#72465D"/>
<stop offset="1" stop-color="#2E5DF3"/>
</linearGradient>
<linearGradient id="paint2_linear_206_7989" x1="14.693" y1="30.4" x2="1.46309" y2="28.7036" gradientUnits="userSpaceOnUse">
<stop stop-color="#EC764F"/>
<stop offset="0.396134" stop-color="#72465D"/>
<stop offset="1" stop-color="#2E5DF3"/>
</linearGradient>
<linearGradient id="paint3_linear_206_7989" x1="19.193" y1="29.0273" x2="6.27023" y2="26.4235" gradientUnits="userSpaceOnUse">
<stop stop-color="#EC764F"/>
<stop offset="0.396134" stop-color="#72465D"/>
<stop offset="1" stop-color="#2E5DF3"/>
</linearGradient>
<clipPath id="clip0_206_7989">
<rect width="24" height="24" fill="white"/>
</clipPath>
</defs>
</svg>
