<svg width="24" height="24" viewBox="0 0 24 24" fill="none" xmlns="http://www.w3.org/2000/svg">
<path d="M15.1954 6.0008C14.6448 5.98909 14.0991 6.10631 13.6019 6.34307C13.1047 6.57983 12.6697 6.92959 12.3318 7.3644C12.2329 7.49055 12.1067 7.59257 11.9626 7.66272C11.8185 7.73287 11.6603 7.76933 11.5 7.76933C11.3397 7.76933 11.1815 7.73287 11.0374 7.66272C10.8933 7.59257 10.7671 7.49055 10.6682 7.3644C10.3303 6.92959 9.8953 6.57983 9.3981 6.34307C8.9009 6.10631 8.35521 5.98909 7.80464 6.0008C5.12516 6.0008 3.76156 8.48255 4.03428 10.7734C4.27291 12.7097 5.73196 14.6324 7.10238 15.996C8.28427 17.0828 9.58044 18.0384 10.9682 18.8459C11.1297 18.94 11.3132 18.9895 11.5 18.9895C11.6868 18.9895 11.8703 18.94 12.0318 18.8459C13.4196 18.0384 14.7157 17.0828 15.8976 15.996C17.2612 14.6324 18.7271 12.7097 18.9657 10.7734C19.2384 8.48255 17.8748 6.0008 15.1954 6.0008Z" fill="url(#paint0_linear_206_21634)" stroke="url(#paint1_linear_206_21634)" stroke-width="2" stroke-linecap="round" stroke-linejoin="round"/>
<defs>
<linearGradient id="paint0_linear_206_21634" x1="18.3421" y1="34.813" x2="-8.99381" y2="28.4526" gradientUnits="userSpaceOnUse">
<stop stop-color="#EC764F"/>
<stop offset="0.396134" stop-color="#72465D"/>
<stop offset="1" stop-color="#2E5DF3"/>
</linearGradient>
<linearGradient id="paint1_linear_206_21634" x1="18.3421" y1="34.813" x2="-8.99381" y2="28.4526" gradientUnits="userSpaceOnUse">
<stop stop-color="#EC764F"/>
<stop offset="0.396134" stop-color="#72465D"/>
<stop offset="1" stop-color="#2E5DF3"/>
</linearGradient>
</defs>
</svg>
