<svg width="24" height="24" viewBox="0 0 24 24" fill="none" xmlns="http://www.w3.org/2000/svg">
<path fill-rule="evenodd" clip-rule="evenodd" d="M17.5 16.0161C16.8667 16.0161 16.3 16.2721 15.8667 16.6732L9.925 13.1315C9.96667 12.9352 10 12.739 10 12.5341C10 12.3293 9.96667 12.133 9.925 11.9367L15.8 8.42922C16.25 8.85592 16.8417 9.12048 17.5 9.12048C18.8833 9.12048 20 7.97691 20 6.56024C20 5.14357 18.8833 4 17.5 4C16.1167 4 15 5.14357 15 6.56024C15 6.76506 15.0333 6.96135 15.075 7.15763L9.2 10.6652C8.75 10.2385 8.15833 9.9739 7.5 9.9739C6.11667 9.9739 5 11.1175 5 12.5341C5 13.9508 6.11667 15.0944 7.5 15.0944C8.15833 15.0944 8.75 14.8298 9.2 14.4031L15.1333 17.9533C15.0917 18.1325 15.0667 18.3203 15.0667 18.508C15.0667 19.882 16.1583 21 17.5 21C18.8417 21 19.9333 19.882 19.9333 18.508C19.9333 17.134 18.8417 16.0161 17.5 16.0161Z" fill="url(#paint0_linear_670_70214)"/>
<defs>
<linearGradient id="paint0_linear_670_70214" x1="19.3421" y1="41.7091" x2="-8.59085" y2="36.743" gradientUnits="userSpaceOnUse">
<stop stop-color="#EC764F"/>
<stop offset="0.396134" stop-color="#72465D"/>
<stop offset="1" stop-color="#2E5DF3"/>
</linearGradient>
</defs>
</svg>
