<svg width="24" height="24" viewBox="0 0 24 24" fill="none" xmlns="http://www.w3.org/2000/svg">
<path fill-rule="evenodd" clip-rule="evenodd" d="M19 3H5C3.89 3 3 3.9 3 5V19C3 20.1 3.89 21 5 21H19C20.11 21 21 20.1 21 19V5C21 3.9 20.11 3 19 3ZM16.7319 9.31854C17.1082 9.72274 17.0857 10.3555 16.6815 10.7319L11.3117 15.7319C10.9277 16.0894 10.3327 16.0894 9.94875 15.7319L7.31854 13.2828C6.91435 12.9064 6.89178 12.2737 7.26814 11.8695C7.6445 11.4653 8.27726 11.4427 8.68146 11.8191L10.6302 13.6336L15.3185 9.26814C15.7227 8.89178 16.3555 8.91435 16.7319 9.31854Z" fill="url(#paint0_linear_193_8574)"/>
<defs>
<linearGradient id="paint0_linear_193_8574" x1="20.2105" y1="42.9273" x2="-13.0194" y2="36.2317" gradientUnits="userSpaceOnUse">
<stop stop-color="#EC764F"/>
<stop offset="0.396134" stop-color="#72465D"/>
<stop offset="1" stop-color="#2E5DF3"/>
</linearGradient>
</defs>
</svg>
