<svg width="24" height="24" viewBox="0 0 24 24" fill="none" xmlns="http://www.w3.org/2000/svg">
<g clip-path="url(#clip0_670_69551)">
<path fill-rule="evenodd" clip-rule="evenodd" d="M8.17097 3.17097C9.20242 2.13952 10.6014 1.56006 12.0601 1.56006C13.5187 1.56006 14.9177 2.13952 15.9491 3.17097C16.9806 4.20242 17.5601 5.60137 17.5601 7.06006V10.0601H15.5601V7.06006C15.5601 6.1318 15.1913 5.24156 14.5349 4.58519C13.8786 3.92881 12.9883 3.56006 12.0601 3.56006C11.1318 3.56006 10.2416 3.92881 9.58519 4.58519C8.92881 5.24156 8.56006 6.1318 8.56006 7.06006V10.0601H6.56006V7.06006C6.56006 5.60137 7.13952 4.20242 8.17097 3.17097ZM18.5649 10.0651H5.56494V21.0651H18.5649V10.0651ZM13.0649 14.5651C13.0649 14.0128 12.6172 13.5651 12.0649 13.5651C11.5127 13.5651 11.0649 14.0128 11.0649 14.5651V16.5651C11.0649 17.1173 11.5127 17.5651 12.0649 17.5651C12.6172 17.5651 13.0649 17.1173 13.0649 16.5651V14.5651Z" fill="url(#paint0_linear_670_69551)"/>
</g>
<defs>
<linearGradient id="paint0_linear_670_69551" x1="17.9948" y1="44.8257" x2="-6.53656" y2="41.5313" gradientUnits="userSpaceOnUse">
<stop stop-color="#EC764F"/>
<stop offset="0.396134" stop-color="#72465D"/>
<stop offset="1" stop-color="#2E5DF3"/>
</linearGradient>
<clipPath id="clip0_670_69551">
<rect width="24" height="24" fill="white"/>
</clipPath>
</defs>
</svg>
