<svg width="24" height="24" viewBox="0 0 24 24" fill="none" xmlns="http://www.w3.org/2000/svg">
<path d="M12.2149 5.70996L13.9949 9.70996C14.0101 9.74789 14.0354 9.78097 14.068 9.80564C14.1006 9.8303 14.1393 9.84563 14.1799 9.84996L18.5399 10.305C18.5853 10.3086 18.6287 10.3257 18.6644 10.354C18.7001 10.3823 18.7266 10.4205 18.7405 10.4639C18.7545 10.5073 18.7552 10.5539 18.7426 10.5977C18.73 10.6415 18.7047 10.6806 18.6699 10.71L15.4149 13.64C15.3836 13.6674 15.3601 13.7028 15.3469 13.7423C15.3338 13.7818 15.3313 13.8242 15.3399 13.865L16.2549 18.15C16.2634 18.1939 16.2592 18.2393 16.2428 18.281C16.2263 18.3226 16.1983 18.3586 16.1621 18.3849C16.1258 18.4112 16.0829 18.4265 16.0382 18.4292C15.9935 18.4319 15.949 18.4217 15.9099 18.4L12.1149 16.205C12.0798 16.1852 12.0402 16.1749 11.9999 16.1749C11.9596 16.1749 11.92 16.1852 11.8849 16.205L8.08991 18.4C8.05081 18.4217 8.0063 18.4319 7.96163 18.4292C7.91696 18.4265 7.87397 18.4112 7.83774 18.3849C7.8015 18.3586 7.77351 18.3226 7.75707 18.281C7.74062 18.2393 7.73641 18.1939 7.74491 18.15L8.65991 13.865C8.66848 13.8242 8.66606 13.7818 8.65288 13.7423C8.6397 13.7028 8.61624 13.6674 8.58491 13.64L5.32991 10.71C5.29509 10.6806 5.26979 10.6415 5.25722 10.5977C5.24464 10.5539 5.24537 10.5073 5.2593 10.4639C5.27322 10.4205 5.29973 10.3823 5.33545 10.354C5.37116 10.3257 5.41448 10.3086 5.45991 10.305L9.81991 9.84996C9.86055 9.84563 9.89925 9.8303 9.93185 9.80564C9.96444 9.78097 9.9897 9.74789 10.0049 9.70996L11.7849 5.70996C11.8033 5.66827 11.8334 5.63283 11.8716 5.60795C11.9098 5.58307 11.9543 5.56982 11.9999 5.56982C12.0455 5.56982 12.0901 5.58307 12.1282 5.60795C12.1664 5.63283 12.1965 5.66827 12.2149 5.70996Z" fill="url(#paint0_linear_670_69443)" stroke="url(#paint1_linear_670_69443)" stroke-width="2" stroke-linecap="round" stroke-linejoin="round"/>
<defs>
<linearGradient id="paint0_linear_670_69443" x1="18.1593" y1="34.0952" x2="-6.66978" y2="28.842" gradientUnits="userSpaceOnUse">
<stop stop-color="#EC764F"/>
<stop offset="0.396134" stop-color="#72465D"/>
<stop offset="1" stop-color="#2E5DF3"/>
</linearGradient>
<linearGradient id="paint1_linear_670_69443" x1="18.1593" y1="34.0952" x2="-6.66978" y2="28.842" gradientUnits="userSpaceOnUse">
<stop stop-color="#EC764F"/>
<stop offset="0.396134" stop-color="#72465D"/>
<stop offset="1" stop-color="#2E5DF3"/>
</linearGradient>
</defs>
</svg>
