<svg width="24" height="24" viewBox="0 0 24 24" fill="none" xmlns="http://www.w3.org/2000/svg">
<path fill-rule="evenodd" clip-rule="evenodd" d="M18.6775 10.467L19.5529 9.74836C19.7592 9.60948 19.9072 9.39956 19.9686 9.1586C20.03 8.91764 20.0007 8.6625 19.8861 8.4418L18.7886 6.54077C18.6735 6.33306 18.4865 6.17457 18.2627 6.09516C18.0389 6.01575 17.7938 6.02089 17.5735 6.10961L16.3257 6.5865C16.1814 6.64248 16.0255 6.66222 15.8718 6.644C15.718 6.62578 15.5711 6.57014 15.4438 6.48198C15.0841 6.22883 14.7013 6.01011 14.3006 5.8287C14.1576 5.76606 14.0332 5.66762 13.9394 5.54289C13.8456 5.41816 13.7855 5.27135 13.7649 5.11663L13.5428 3.81008C13.5069 3.58334 13.3909 3.37697 13.2159 3.22837C13.041 3.07976 12.8186 2.99875 12.589 3.00001H10.394C10.1644 2.99875 9.94201 3.07976 9.76704 3.22837C9.59207 3.37697 9.47612 3.58334 9.4402 3.81008L9.21809 5.11663C9.19692 5.27115 9.13659 5.41768 9.04283 5.54232C8.94907 5.66695 8.825 5.76553 8.6824 5.8287C8.28031 6.0115 7.8955 6.23014 7.53264 6.48198C7.40685 6.57065 7.26097 6.62663 7.10815 6.64487C6.95534 6.66312 6.80038 6.64306 6.65725 6.5865L5.40949 6.10961C5.194 6.0293 4.95703 6.02789 4.74059 6.10561C4.52416 6.18334 4.34223 6.33518 4.22706 6.53424L3.12956 8.42874C3.01446 8.62807 2.97425 8.86193 3.01617 9.08825C3.05808 9.31458 3.17936 9.51853 3.3582 9.66343L4.35772 10.48C4.48175 10.5829 4.57831 10.7149 4.63874 10.8643C4.69917 11.0136 4.72158 11.1757 4.70395 11.3358C4.66908 11.7706 4.66908 12.2075 4.70395 12.6424C4.71746 12.8009 4.69243 12.9603 4.63101 13.107C4.56958 13.2538 4.47358 13.3835 4.35118 13.4851L3.3582 14.2952C3.18154 14.4417 3.06235 14.646 3.02171 14.8719C2.98107 15.0979 3.02158 15.3309 3.13609 15.5298L4.23359 17.4309C4.34876 17.6299 4.53069 17.7818 4.74713 17.8595C4.96356 17.9372 5.20053 17.9358 5.41602 17.8555L6.56579 17.4178C6.71114 17.3613 6.86814 17.3412 7.02303 17.3595C7.17792 17.3777 7.32599 17.4336 7.45424 17.5223C7.84522 17.81 8.26568 18.0553 8.70853 18.254C8.85157 18.321 8.97589 18.4222 9.07047 18.5487C9.16505 18.6751 9.22697 18.823 9.25075 18.9791L9.44674 20.1812C9.48265 20.4079 9.5986 20.6143 9.77357 20.7629C9.94854 20.9115 10.171 20.9925 10.4005 20.9912H12.5955C12.8251 20.9925 13.0475 20.9115 13.2225 20.7629C13.3974 20.6143 13.5134 20.4079 13.5493 20.1812L13.7453 18.9791C13.7697 18.8224 13.8318 18.6739 13.9262 18.5465C14.0207 18.4191 14.1447 18.3164 14.2875 18.2475C14.7307 18.0521 15.1513 17.8089 15.5418 17.5223C15.6693 17.432 15.8175 17.3751 15.9727 17.3568C16.1279 17.3386 16.2852 17.3595 16.4303 17.4178L17.58 17.8555C17.7955 17.9358 18.0325 17.9372 18.2489 17.8595C18.4654 17.7818 18.6473 17.6299 18.7625 17.4309L19.86 15.5298C19.9751 15.3305 20.0153 15.0967 19.9733 14.8703C19.9314 14.644 19.8102 14.4401 19.6313 14.2952L18.6775 13.5112C18.5451 13.4111 18.4407 13.2786 18.3743 13.1264C18.3079 12.9742 18.2819 12.8075 18.2986 12.6424C18.3472 12.2082 18.3472 11.77 18.2986 11.3358C18.2819 11.1706 18.3079 11.0039 18.3743 10.8518C18.4407 10.6996 18.5451 10.5671 18.6775 10.467ZM9.74239 14.4099C10.2481 14.7864 10.861 14.9912 11.4915 14.9942C12.0891 15.0045 12.6754 14.8299 13.17 14.4943C13.6647 14.1587 14.0436 13.6785 14.2548 13.1193C14.485 12.5323 14.5212 11.8871 14.3582 11.2781C14.1952 10.6691 13.8416 10.1282 13.3491 9.73461C12.8565 9.34104 12.2509 9.11546 11.6209 9.09087C10.991 9.06628 10.3696 9.24398 9.84792 9.59796C9.3262 9.95194 8.93148 10.4636 8.72152 11.0581C8.51157 11.6526 8.4974 12.2986 8.68109 12.9018C8.86478 13.5049 9.23669 14.0334 9.74239 14.4099Z" fill="url(#paint0_linear_206_13010)"/>
<path d="M19.5529 9.74836L18.9944 8.91883L18.9551 8.94533L18.9184 8.97543L19.5529 9.74836ZM18.6775 10.467L19.2805 11.2647L19.2965 11.2526L19.312 11.2399L18.6775 10.467ZM19.9686 9.1586L20.9376 9.4057L20.9376 9.4057L19.9686 9.1586ZM19.8861 8.4418L20.7736 7.98101L20.7633 7.96117L20.7521 7.94182L19.8861 8.4418ZM18.7886 6.54077L17.9139 7.0254L17.9181 7.03312L17.9225 7.04075L18.7886 6.54077ZM18.2627 6.09516L17.9282 7.03759L17.9283 7.03759L18.2627 6.09516ZM17.5735 6.10961L17.9305 7.04371L17.9388 7.04053L17.9471 7.0372L17.5735 6.10961ZM16.3257 6.5865L15.9687 5.65239L15.9642 5.65415L16.3257 6.5865ZM15.8718 6.644L15.9895 5.65095L15.9895 5.65095L15.8718 6.644ZM15.4438 6.48198L14.8683 7.2998L14.8743 7.30398L15.4438 6.48198ZM14.3006 5.8287L14.713 4.91763L14.7019 4.91278L14.3006 5.8287ZM13.7649 5.11663L14.7562 4.98488L14.7538 4.96691L14.7507 4.94903L13.7649 5.11663ZM13.5428 3.81008L12.555 3.96653L12.5569 3.97767L13.5428 3.81008ZM13.2159 3.22837L13.8633 2.46617L13.8633 2.46617L13.2159 3.22837ZM12.589 3.00001L12.589 4.00003L12.5945 4L12.589 3.00001ZM10.394 3.00001L10.3885 4.00001H10.394V3.00001ZM9.76704 3.22837L9.11969 2.46617L9.11969 2.46617L9.76704 3.22837ZM9.4402 3.81008L10.4261 3.97768L10.4279 3.96652L9.4402 3.81008ZM9.21809 5.11663L8.23223 4.94903L8.22953 4.96493L8.22734 4.9809L9.21809 5.11663ZM8.6824 5.8287L8.27735 4.91435L8.26855 4.91836L8.6824 5.8287ZM7.53264 6.48198L6.96246 5.66042L6.95649 5.66463L7.53264 6.48198ZM7.10815 6.64487L6.98959 5.65193L6.98959 5.65193L7.10815 6.64487ZM6.65725 6.5865L7.02478 5.65642L7.01426 5.6524L6.65725 6.5865ZM5.40949 6.10961L5.76651 5.17548L5.7587 5.17256L5.40949 6.10961ZM4.22706 6.53424L5.09235 7.03551L5.09262 7.03504L4.22706 6.53424ZM3.12956 8.42874L2.26427 7.92747L2.26355 7.9287L3.12956 8.42874ZM3.01617 9.08825L2.03288 9.27034L2.03288 9.27034L3.01617 9.08825ZM3.3582 9.66343L3.9909 8.88902L3.98772 8.88644L3.3582 9.66343ZM4.35772 10.48L4.99603 9.71021L4.9904 9.70562L4.35772 10.48ZM4.63874 10.8643L5.56575 10.4892L5.56575 10.4892L4.63874 10.8643ZM4.70395 11.3358L3.70995 11.2264L3.70834 11.2411L3.70715 11.2559L4.70395 11.3358ZM4.70395 12.6424L3.70714 12.7223L3.70756 12.7273L4.70395 12.6424ZM4.35118 13.4851L4.98333 14.26L4.98996 14.2545L4.35118 13.4851ZM3.3582 14.2952L2.72606 13.5203L2.7197 13.5255L3.3582 14.2952ZM3.02171 14.8719L4.00591 15.049L4.00591 15.049L3.02171 14.8719ZM3.13609 15.5298L2.2694 16.0287L2.27005 16.0298L3.13609 15.5298ZM4.23359 17.4309L3.36756 17.9309L3.36803 17.9317L4.23359 17.4309ZM4.74713 17.8595L5.08511 16.9184L5.08511 16.9184L4.74713 17.8595ZM5.41602 17.8555L5.76524 18.7926L5.7718 18.7901L5.41602 17.8555ZM6.56579 17.4178L6.92157 18.3524L6.92834 18.3498L6.56579 17.4178ZM7.02303 17.3595L6.90619 18.3526L6.90619 18.3526L7.02303 17.3595ZM7.45424 17.5223L8.04688 16.7169L8.03516 16.7082L8.02319 16.7L7.45424 17.5223ZM8.70853 18.254L9.13251 17.3483L9.12526 17.3449L9.11796 17.3417L8.70853 18.254ZM9.25075 18.9791L8.2621 19.1297L8.26379 19.1401L9.25075 18.9791ZM9.44674 20.1812L10.4344 20.0247L10.4337 20.0203L9.44674 20.1812ZM10.4005 20.9912V19.9912L10.395 19.9913L10.4005 20.9912ZM12.5955 20.9912L12.601 19.9912H12.5955V20.9912ZM13.5493 20.1812L12.5623 20.0203L12.5616 20.0247L13.5493 20.1812ZM13.7453 18.9791L14.7323 19.1401L14.7334 19.133L13.7453 18.9791ZM13.9262 18.5465L13.1228 17.9511L13.1228 17.9511L13.9262 18.5465ZM14.2875 18.2475L13.8841 17.3325L13.8683 17.3394L13.8528 17.3469L14.2875 18.2475ZM15.5418 17.5223L14.9637 16.7064L14.9569 16.7112L14.9501 16.7162L15.5418 17.5223ZM16.4303 17.4178L16.0573 18.3457L16.0659 18.3491L16.0745 18.3524L16.4303 17.4178ZM17.58 17.8555L17.2242 18.7901L17.2308 18.7926L17.58 17.8555ZM18.2489 17.8595L17.9109 16.9184L17.9109 16.9184L18.2489 17.8595ZM18.7625 17.4309L19.628 17.9317L19.6285 17.9309L18.7625 17.4309ZM19.86 15.5298L18.994 15.0298L18.9939 15.0299L19.86 15.5298ZM19.9733 14.8703L18.9901 15.0524L18.9901 15.0524L19.9733 14.8703ZM19.6313 14.2952L18.9963 15.0677L19.0018 15.0721L19.6313 14.2952ZM18.6775 13.5112L19.3125 12.7387L19.2968 12.7258L19.2805 12.7135L18.6775 13.5112ZM18.3743 13.1264L17.4577 13.5261L17.4577 13.5261L18.3743 13.1264ZM18.2986 12.6424L17.3048 12.5313L17.3037 12.5415L18.2986 12.6424ZM18.2986 11.3358L17.3037 11.4367L17.3048 11.4469L18.2986 11.3358ZM18.3743 10.8518L17.4577 10.452L17.4577 10.452L18.3743 10.8518ZM11.4915 14.9942L11.5087 13.9943L11.4963 13.9942L11.4915 14.9942ZM9.74239 14.4099L10.3396 13.6078L10.3396 13.6078L9.74239 14.4099ZM13.17 14.4943L13.7315 15.3218L13.7315 15.3218L13.17 14.4943ZM14.2548 13.1193L13.3238 12.7542L13.3194 12.7658L14.2548 13.1193ZM13.3491 9.73461L13.9733 8.95338L13.9733 8.95338L13.3491 9.73461ZM11.6209 9.09087L11.6599 8.09163L11.6599 8.09163L11.6209 9.09087ZM9.84792 9.59796L9.28647 8.77045L9.28647 8.77045L9.84792 9.59796ZM8.72152 11.0581L7.7786 10.7251L7.7786 10.7251L8.72152 11.0581ZM8.68109 12.9018L7.72448 13.1931L7.72448 13.1931L8.68109 12.9018ZM18.9184 8.97543L18.043 9.69403L19.312 11.2399L20.1874 10.5213L18.9184 8.97543ZM18.9996 8.9115C18.9988 8.9145 18.997 8.91711 18.9944 8.91883L20.1114 10.5779C20.5214 10.3019 20.8155 9.88462 20.9376 9.4057L18.9996 8.9115ZM18.9986 8.9026C19 8.90535 19.0004 8.90852 18.9996 8.9115L20.9376 9.4057C21.0597 8.92676 21.0013 8.41965 20.7736 7.98101L18.9986 8.9026ZM17.9225 7.04075L19.0201 8.94178L20.7521 7.94182L19.6546 6.04079L17.9225 7.04075ZM17.9283 7.03759C17.9221 7.03542 17.917 7.03108 17.9139 7.0254L19.6633 6.05614C19.43 5.63503 19.0508 5.31373 18.5971 5.15274L17.9283 7.03759ZM17.9471 7.0372C17.9411 7.03962 17.9344 7.03976 17.9282 7.03759L18.5971 5.15274C18.1434 4.99174 17.6464 5.00216 17.1999 5.18202L17.9471 7.0372ZM16.6827 7.5206L17.9305 7.04371L17.2165 5.17551L15.9687 5.6524L16.6827 7.5206ZM15.7541 7.63705C16.0701 7.67451 16.3906 7.63392 16.6873 7.51885L15.9642 5.65415C15.9722 5.65103 15.9809 5.64993 15.9895 5.65095L15.7541 7.63705ZM14.8743 7.30398C15.1359 7.48523 15.438 7.59959 15.7541 7.63705L15.9895 5.65095C15.998 5.65196 16.0062 5.65506 16.0133 5.65997L14.8743 7.30398ZM13.8882 6.7397C14.2317 6.89523 14.5599 7.08275 14.8683 7.29978L16.0193 5.66417C15.6082 5.37491 15.1709 5.12498 14.713 4.9177L13.8882 6.7397ZM13.1403 6.14406C13.3374 6.40615 13.5988 6.61299 13.8992 6.74462L14.7019 4.91278C14.7164 4.91912 14.729 4.92909 14.7385 4.94172L13.1403 6.14406ZM12.7736 5.24838C12.8168 5.57349 12.9431 5.88197 13.1403 6.14406L14.7385 4.94172C14.748 4.95435 14.7541 4.96921 14.7562 4.98488L12.7736 5.24838ZM12.5569 3.97767L12.779 5.28422L14.7507 4.94903L14.5286 3.64248L12.5569 3.97767ZM12.5686 3.99056C12.5614 3.98442 12.5566 3.97589 12.5551 3.96652L14.5305 3.65363C14.4572 3.19079 14.2205 2.76952 13.8633 2.46617L12.5686 3.99056ZM12.5945 4C12.585 4.00005 12.5758 3.9967 12.5686 3.99056L13.8633 2.46617C13.5061 2.16282 13.0521 1.99745 12.5835 2.00003L12.5945 4ZM10.394 4.00001H12.589V2.00001H10.394V4.00001ZM10.4144 3.99056C10.4072 3.9967 10.398 4.00005 10.3885 4L10.3995 2.00003C9.93089 1.99745 9.47687 2.16282 9.11969 2.46617L10.4144 3.99056ZM10.4279 3.96652C10.4264 3.9759 10.4216 3.98442 10.4144 3.99056L9.11969 2.46617C8.76252 2.76952 8.52583 3.19079 8.45252 3.65363L10.4279 3.96652ZM10.2039 5.28422L10.4261 3.97767L8.45435 3.64248L8.23223 4.94903L10.2039 5.28422ZM9.84195 6.14349C10.0382 5.88259 10.1645 5.57583 10.2088 5.25236L8.22734 4.9809C8.22932 4.96646 8.23496 4.95278 8.24371 4.94114L9.84195 6.14349ZM9.08744 6.743C9.38595 6.61076 9.64568 6.40439 9.84195 6.14349L8.24371 4.94114C8.25247 4.92951 8.26405 4.9203 8.27737 4.9144L9.08744 6.743ZM8.1028 7.30351C8.41633 7.08591 8.74883 6.89699 9.09626 6.73904L8.26855 4.91836C7.81179 5.12601 7.37467 5.37437 6.96248 5.66044L8.1028 7.30351ZM7.22671 7.63782C7.54427 7.59991 7.8474 7.48358 8.10879 7.29932L6.95649 5.66463C6.9663 5.65772 6.97767 5.65335 6.98959 5.65193L7.22671 7.63782ZM6.28974 7.51652C6.58716 7.63405 6.90916 7.67574 7.22672 7.63782L6.98959 5.65193C7.00151 5.6505 7.0136 5.65207 7.02476 5.65648L6.28974 7.51652ZM5.05248 7.04371L6.30024 7.5206L7.01426 5.6524L5.7665 5.17551L5.05248 7.04371ZM5.07858 7.04676C5.07266 7.04889 5.06618 7.04885 5.06028 7.04665L5.7587 5.17256C5.32182 5.00975 4.8414 5.00688 4.40261 5.16446L5.07858 7.04676ZM5.09262 7.03504C5.08947 7.04049 5.0845 7.04464 5.07858 7.04676L4.40261 5.16446C3.96382 5.32204 3.59499 5.62988 3.3615 6.03343L5.09262 7.03504ZM3.99485 8.93001L5.09235 7.03551L3.36177 6.03297L2.26427 7.92747L3.99485 8.93001ZM3.99945 8.90616C4.00088 8.91392 3.99951 8.92194 3.99556 8.92878L2.26355 7.9287C2.02941 8.3342 1.94762 8.80993 2.03288 9.27034L3.99945 8.90616ZM3.98772 8.88644C3.99385 8.89141 3.99801 8.8984 3.99945 8.90616L2.03288 9.27034C2.11815 9.73076 2.36487 10.1457 2.72869 10.4404L3.98772 8.88644ZM4.9904 9.70562L3.99089 8.88902L2.72552 10.4378L3.72503 11.2544L4.9904 9.70562ZM5.56575 10.4892C5.44324 10.1864 5.24747 9.91874 4.99601 9.71023L3.71942 11.2498C3.71603 11.247 3.71339 11.2434 3.71174 11.2393L5.56575 10.4892ZM5.69795 11.4452C5.73369 11.1205 5.68826 10.792 5.56575 10.4892L3.71174 11.2393C3.71009 11.2352 3.70947 11.2308 3.70995 11.2264L5.69795 11.4452ZM5.70075 12.5624C5.67015 12.1808 5.67015 11.7974 5.70075 11.4158L3.70715 11.2559C3.66802 11.7439 3.66802 12.2343 3.70715 12.7223L5.70075 12.5624ZM5.55345 13.4932C5.67714 13.1977 5.72754 12.8766 5.70034 12.5575L3.70756 12.7273C3.70738 12.7251 3.70772 12.7229 3.70857 12.7209L5.55345 13.4932ZM4.98996 14.2545C5.23643 14.0499 5.42975 13.7887 5.55345 13.4932L3.70857 12.7209C3.70941 12.7189 3.71072 12.7171 3.71241 12.7157L4.98996 14.2545ZM3.99033 15.07L4.98331 14.26L3.71906 12.7102L2.72608 13.5203L3.99033 15.07ZM4.00591 15.049C4.0048 15.0552 4.00154 15.0608 3.99671 15.0648L2.7197 13.5255C2.36153 13.8227 2.11991 14.2369 2.03751 14.6949L4.00591 15.049ZM4.00278 15.031C4.00592 15.0364 4.00702 15.0428 4.00591 15.049L2.03751 14.6949C1.95511 15.1529 2.03724 15.6253 2.2694 16.0287L4.00278 15.031ZM5.09963 16.9309L4.00213 15.0299L2.27005 16.0298L3.36756 17.9309L5.09963 16.9309ZM5.08511 16.9184C5.09103 16.9205 5.096 16.9246 5.09915 16.9301L3.36803 17.9317C3.60152 18.3352 3.97035 18.6431 4.40915 18.8007L5.08511 16.9184ZM5.06682 16.9185C5.07271 16.9163 5.07919 16.9162 5.08511 16.9184L4.40914 18.8007C4.84794 18.9582 5.32835 18.9554 5.76523 18.7926L5.06682 16.9185ZM6.21002 16.4832L5.06025 16.9209L5.7718 18.7901L6.92156 18.3524L6.21002 16.4832ZM7.13987 16.3663C6.82258 16.329 6.50097 16.37 6.20324 16.4859L6.92834 18.3498C6.9213 18.3525 6.9137 18.3535 6.90619 18.3526L7.13987 16.3663ZM8.02319 16.7C7.76046 16.5182 7.45717 16.4036 7.13987 16.3663L6.90619 18.3526C6.89868 18.3517 6.89151 18.349 6.8853 18.3447L8.02319 16.7ZM9.11796 17.3417C8.73979 17.172 8.38075 16.9625 8.04688 16.7169L6.86161 18.3278C7.3097 18.6575 7.79157 18.9386 8.29911 19.1664L9.11796 17.3417ZM9.87133 17.9498C9.67826 17.6916 9.42449 17.485 9.13251 17.3483L8.28456 19.1597C8.27866 19.1569 8.27352 19.1527 8.26961 19.1475L9.87133 17.9498ZM10.2394 18.8286C10.1908 18.5099 10.0644 18.208 9.87133 17.9498L8.26961 19.1475C8.26569 19.1423 8.26314 19.1362 8.26215 19.1297L10.2394 18.8286ZM10.4337 20.0203L10.2377 18.8182L8.26379 19.1401L8.45977 20.3421L10.4337 20.0203ZM10.4209 20.0007C10.4281 20.0068 10.4329 20.0154 10.4344 20.0247L8.45905 20.3376C8.53236 20.8005 8.76905 21.2217 9.12623 21.5251L10.4209 20.0007ZM10.395 19.9913C10.4045 19.9912 10.4137 19.9945 10.4209 20.0007L9.12623 21.5251C9.4834 21.8284 9.93742 21.9938 10.406 21.9912L10.395 19.9913ZM12.5955 19.9912H10.4005V21.9912H12.5955V19.9912ZM12.5751 20.0007C12.5824 19.9945 12.5916 19.9912 12.601 19.9913L12.59 21.9912C13.0586 21.9938 13.5126 21.8284 13.8698 21.5251L12.5751 20.0007ZM12.5616 20.0247C12.5631 20.0154 12.5679 20.0068 12.5751 20.0007L13.8698 21.5251C14.227 21.2217 14.4637 20.8005 14.537 20.3376L12.5616 20.0247ZM12.7583 18.8182L12.5623 20.0203L14.5363 20.3421L14.7323 19.1401L12.7583 18.8182ZM13.1228 17.9511C12.932 18.2086 12.8065 18.5086 12.7572 18.8253L14.7334 19.133C14.7329 19.1362 14.7316 19.1393 14.7297 19.1419L13.1228 17.9511ZM13.8528 17.3469C13.5641 17.4863 13.3136 17.6936 13.1228 17.9511L14.7297 19.1419C14.7277 19.1445 14.7252 19.1466 14.7223 19.148L13.8528 17.3469ZM14.9501 16.7162C14.6183 16.9597 14.2608 17.1664 13.8841 17.3325L14.6909 19.1625C15.2007 18.9378 15.6844 18.6581 16.1335 18.3285L14.9501 16.7162ZM15.8559 16.3637C15.5345 16.4015 15.2277 16.5193 14.9637 16.7064L16.1199 18.3383C16.1109 18.3447 16.1005 18.3487 16.0895 18.35L15.8559 16.3637ZM16.8032 16.49C16.503 16.3693 16.1772 16.3259 15.8559 16.3637L16.0895 18.35C16.0786 18.3513 16.0675 18.3498 16.0573 18.3457L16.8032 16.49ZM17.9358 16.9209L16.786 16.4832L16.0745 18.3524L17.2242 18.7901L17.9358 16.9209ZM17.9109 16.9184C17.9169 16.9162 17.9233 16.9163 17.9292 16.9185L17.2308 18.7926C17.6677 18.9554 18.1481 18.9582 18.5869 18.8007L17.9109 16.9184ZM17.8969 16.9301C17.9 16.9246 17.905 16.9205 17.9109 16.9184L18.5869 18.8007C19.0257 18.6431 19.3945 18.3352 19.628 17.9317L17.8969 16.9301ZM18.9939 15.0299L17.8964 16.9309L19.6285 17.9309L20.726 16.0298L18.9939 15.0299ZM18.9901 15.0524C18.9886 15.0447 18.99 15.0366 18.994 15.0298L20.726 16.0299C20.9601 15.6244 21.0419 15.1487 20.9566 14.6882L18.9901 15.0524ZM19.0018 15.0721C18.9957 15.0672 18.9915 15.0602 18.9901 15.0524L20.9566 14.6882C20.8714 14.2278 20.6246 13.8129 20.2608 13.5182L19.0018 15.0721ZM18.0426 14.2838L18.9963 15.0677L20.2663 13.5226L19.3125 12.7387L18.0426 14.2838ZM17.4577 13.5261C17.5927 13.8357 17.8051 14.1053 18.0745 14.309L19.2805 12.7135C19.2851 12.7169 19.2887 12.7215 19.2909 12.7267L17.4577 13.5261ZM17.3037 12.5415C17.2696 12.8775 17.3227 13.2166 17.4577 13.5261L19.2909 12.7267C19.2932 12.7319 19.2941 12.7376 19.2935 12.7433L17.3037 12.5415ZM17.3048 11.4469C17.3451 11.8072 17.3451 12.1709 17.3048 12.5313L19.2924 12.7535C19.3492 12.2455 19.3492 11.7327 19.2924 11.2247L17.3048 11.4469ZM17.4577 10.452C17.3227 10.7616 17.2696 11.1007 17.3037 11.4367L19.2935 11.2349C19.2941 11.2406 19.2932 11.2463 19.2909 11.2515L17.4577 10.452ZM18.0745 9.66922C17.8051 9.87287 17.5927 10.1425 17.4577 10.452L19.2909 11.2515C19.2887 11.2567 19.2851 11.2613 19.2805 11.2647L18.0745 9.66922ZM11.4963 13.9942C11.0794 13.9922 10.674 13.8568 10.3396 13.6078L9.1452 15.212C9.82215 15.716 10.6427 15.9901 11.4866 15.9942L11.4963 13.9942ZM12.6086 13.6668C12.2845 13.8867 11.9003 14.0011 11.5087 13.9944L11.4742 15.9941C12.2779 16.0079 13.0663 15.7731 13.7315 15.3218L12.6086 13.6668ZM13.3194 12.7658C13.1809 13.1322 12.9327 13.4469 12.6086 13.6668L13.7315 15.3218C14.3967 14.8705 14.9062 14.2247 15.1903 13.4728L13.3194 12.7658ZM13.3922 11.5366C13.5 11.9394 13.476 12.3661 13.3238 12.7543L15.1858 13.4843C15.4939 12.6986 15.5424 11.8349 15.3242 11.0196L13.3922 11.5366ZM12.7248 10.5158C13.0505 10.7761 13.2844 11.1338 13.3922 11.5366L15.3242 11.0196C15.106 10.2043 14.6326 9.48023 13.9733 8.95338L12.7248 10.5158ZM11.5819 10.0901C11.9986 10.1064 12.3991 10.2556 12.7248 10.5158L13.9733 8.95338C13.314 8.42653 12.5033 8.12455 11.6599 8.09163L11.5819 10.0901ZM10.4094 10.4255C10.7544 10.1914 11.1653 10.0738 11.5819 10.0901L11.6599 8.09163C10.8166 8.05872 9.98487 8.29659 9.28647 8.77045L10.4094 10.4255ZM9.66444 11.3911C9.8033 10.998 10.0643 10.6596 10.4094 10.4255L9.28647 8.77045C8.58807 9.24431 8.05967 9.92926 7.7786 10.7251L9.66444 11.3911ZM9.6377 12.6104C9.51622 12.2115 9.52559 11.7843 9.66444 11.3911L7.7786 10.7251C7.49754 11.5209 7.47857 12.3858 7.72448 13.1931L9.6377 12.6104ZM10.3396 13.6078C10.0051 13.3588 9.75919 13.0093 9.6377 12.6104L7.72448 13.1931C7.97038 14.0005 8.46824 14.7079 9.1452 15.212L10.3396 13.6078Z" fill="url(#paint1_linear_206_13010)"/>
<defs>
<linearGradient id="paint0_linear_206_13010" x1="19.2544" y1="42.9079" x2="-12.2612" y2="36.9076" gradientUnits="userSpaceOnUse">
<stop stop-color="#EC764F"/>
<stop offset="0.396134" stop-color="#72465D"/>
<stop offset="1" stop-color="#2E5DF3"/>
</linearGradient>
<linearGradient id="paint1_linear_206_13010" x1="19.2544" y1="42.9079" x2="-12.2612" y2="36.9076" gradientUnits="userSpaceOnUse">
<stop stop-color="#EC764F"/>
<stop offset="0.396134" stop-color="#72465D"/>
<stop offset="1" stop-color="#2E5DF3"/>
</linearGradient>
</defs>
</svg>
