<svg width="24" height="24" viewBox="0 0 24 24" fill="none" xmlns="http://www.w3.org/2000/svg">
<path d="M13 18.5C12.8385 18.594 11.6868 18.9895 11.5 18.9895C11.3132 18.9895 11.1297 18.94 10.9682 18.8459C9.58044 18.0384 8.28427 17.0828 7.10238 15.996C5.73196 14.6324 4.27291 12.7097 4.03428 10.7734C3.76156 8.48255 5.12516 6.0008 7.80464 6.0008C8.35521 5.98909 8.9009 6.10631 9.3981 6.34307C9.89531 6.57983 10.3303 6.92959 10.6682 7.3644C10.7671 7.49055 10.8933 7.59257 11.0374 7.66272C11.1815 7.73287 11.3397 7.76933 11.5 7.76933C11.6603 7.76933 11.8185 7.73287 11.9626 7.66272C12.1067 7.59257 12.2329 7.49055 12.3318 7.3644C12.6697 6.92959 13.1047 6.57983 13.6019 6.34307C14.0991 6.10631 14.6448 5.98909 15.1954 6.0008C17.8748 6.0008 19.2384 8.48255 18.9657 10.7734" stroke="url(#paint0_linear_206_21633)" stroke-width="2" stroke-linecap="round" stroke-linejoin="round"/>
<path fill-rule="evenodd" clip-rule="evenodd" d="M17.75 12.25C17.75 11.6977 17.3023 11.25 16.75 11.25C16.1977 11.25 15.75 11.6977 15.75 12.25V13.75H14.25C13.6977 13.75 13.25 14.1977 13.25 14.75C13.25 15.3023 13.6977 15.75 14.25 15.75H15.75V17.25C15.75 17.8023 16.1977 18.25 16.75 18.25C17.3023 18.25 17.75 17.8023 17.75 17.25V15.75H19.25C19.8023 15.75 20.25 15.3023 20.25 14.75C20.25 14.1977 19.8023 13.75 19.25 13.75H17.75V12.25Z" fill="url(#paint1_linear_206_21633)"/>
<defs>
<linearGradient id="paint0_linear_206_21633" x1="18.3421" y1="34.813" x2="-8.99381" y2="28.4526" gradientUnits="userSpaceOnUse">
<stop stop-color="#EC764F"/>
<stop offset="0.396134" stop-color="#72465D"/>
<stop offset="1" stop-color="#2E5DF3"/>
</linearGradient>
<linearGradient id="paint1_linear_206_21633" x1="19.943" y1="26.7773" x2="7.02023" y2="24.1735" gradientUnits="userSpaceOnUse">
<stop stop-color="#EC764F"/>
<stop offset="0.396134" stop-color="#72465D"/>
<stop offset="1" stop-color="#2E5DF3"/>
</linearGradient>
</defs>
</svg>
