<svg width="24" height="24" viewBox="0 0 24 24" fill="none" xmlns="http://www.w3.org/2000/svg">
<path d="M11.2544 4.5L10.4798 1.85926L10.3744 1.5H10H4C2.62386 1.5 1.5 2.62386 1.5 4V17C1.5 18.3761 2.62386 19.5 4 19.5H10.6396L11.5257 22.1581L11.6396 22.5H12H20C21.3761 22.5 22.5 21.3761 22.5 20V7C22.5 5.62386 21.3761 4.5 20 4.5H11.2544ZM12.7349 9.54L11.8469 6.5H20C20.2739 6.5 20.5 6.72614 20.5 7V20C20.5 20.2739 20.2739 20.5 20 20.5H14.2071L15.3536 19.3536L15.5631 19.144L15.4799 18.8597L14.7531 16.374L15.1093 16.0178L17.4358 18.3529L17.7893 18.7078L18.1436 18.3536L18.8736 17.6236L19.2291 17.268L18.8716 16.9145L16.4884 14.5577C17.2021 13.6638 17.7764 12.646 18.1081 11.58H19H19.5V11.08V10.04V9.54H19H15.86V9V8.5H15.36H14.32H13.82V9V9.54H12.7349ZM9.29 10.96H7.58V10.41H10.5865C10.589 10.4672 10.59 10.5266 10.59 10.59C10.59 11.6485 10.2292 12.5184 9.63892 13.1215C9.04946 13.7238 8.20201 14.09 7.17 14.09C5.19535 14.09 3.58 12.4831 3.58 10.5C3.58 8.51614 5.18614 6.91 7.17 6.91C7.93461 6.91 8.6376 7.13557 9.23045 7.56619L8.7213 8.05465C8.35883 7.80338 7.84778 7.58 7.17 7.58C5.57577 7.58 4.29 8.90202 4.29 10.5C4.29 12.098 5.57577 13.42 7.17 13.42C8.8119 13.42 9.5665 12.3507 9.77257 11.5909L9.94365 10.96H9.29ZM14.4153 11.8926L14.2761 11.62H13.97H13.3527L13.3408 11.58H15.9404C15.923 11.619 15.9045 11.6595 15.8848 11.7014C15.7167 12.0598 15.4654 12.517 15.103 13.0112C14.8049 12.5995 14.5779 12.211 14.4153 11.8926Z" stroke="url(#paint0_linear_672_25485)"/>
<defs>
<linearGradient id="paint0_linear_672_25485" x1="21.1228" y1="46.3636" x2="-15.7993" y2="38.9242" gradientUnits="userSpaceOnUse">
<stop stop-color="#EC764F"/>
<stop offset="0.396134" stop-color="#72465D"/>
<stop offset="1" stop-color="#2E5DF3"/>
</linearGradient>
</defs>
</svg>
