<svg width="24" height="24" viewBox="0 0 24 24" fill="none" xmlns="http://www.w3.org/2000/svg">
<path fill-rule="evenodd" clip-rule="evenodd" d="M15.8667 16.6732C16.3 16.2721 16.8667 16.016 17.5 16.016C18.8417 16.016 19.9333 17.134 19.9333 18.508C19.9333 19.882 18.8417 21 17.5 21C16.1583 21 15.0667 19.882 15.0667 18.508C15.0667 18.3202 15.0917 18.1325 15.1333 17.9533L9.2 14.4031C8.75 14.8298 8.15833 15.0944 7.5 15.0944C6.11667 15.0944 5 13.9508 5 12.5341C5 11.1175 6.11667 9.97388 7.5 9.97388C8.15833 9.97388 8.75 10.2384 9.2 10.6651L15.075 7.15762C15.0333 6.96134 15 6.76505 15 6.56024C15 5.14357 16.1167 4 17.5 4C18.8833 4 20 5.14357 20 6.56024C20 7.9769 18.8833 9.12047 17.5 9.12047C16.8417 9.12047 16.25 8.85591 15.8 8.42921L9.925 11.9367C9.96667 12.133 10 12.3293 10 12.5341C10 12.7389 9.96667 12.9352 9.925 13.1315L15.8667 16.6732ZM7.4751 13.8142C8.16545 13.8142 8.7251 13.2411 8.7251 12.5341C8.7251 11.8271 8.16545 11.254 7.4751 11.254C6.78474 11.254 6.2251 11.8271 6.2251 12.5341C6.2251 13.2411 6.78474 13.8142 7.4751 13.8142ZM18.75 6.56024C18.75 7.26722 18.1904 7.84035 17.5 7.84035C16.8096 7.84035 16.25 7.26722 16.25 6.56024C16.25 5.85325 16.8096 5.28012 17.5 5.28012C18.1904 5.28012 18.75 5.85325 18.75 6.56024ZM17.5 19.7881C18.1904 19.7881 18.75 19.215 18.75 18.508C18.75 17.801 18.1904 17.2279 17.5 17.2279C16.8096 17.2279 16.25 17.801 16.25 18.508C16.25 19.215 16.8096 19.7881 17.5 19.7881Z" fill="url(#paint0_linear_670_70211)"/>
<defs>
<linearGradient id="paint0_linear_670_70211" x1="19.3421" y1="41.7091" x2="-8.59085" y2="36.743" gradientUnits="userSpaceOnUse">
<stop stop-color="#EC764F"/>
<stop offset="0.396134" stop-color="#72465D"/>
<stop offset="1" stop-color="#2E5DF3"/>
</linearGradient>
</defs>
</svg>
