<svg width="24" height="24" viewBox="0 0 24 24" fill="none" xmlns="http://www.w3.org/2000/svg">
<path d="M11.5 3C11.2404 3.01493 10.9931 3.11604 10.7968 3.28748L3.51 9.1691C3.35244 9.2945 3.22484 9.45382 3.13658 9.63534C3.04832 9.81685 3.00165 10.016 3 10.218V18.6325C3 18.9952 3.14329 19.343 3.39834 19.5995C3.65338 19.8559 3.99931 20 4.36 20H7.12636C7.30561 20.001 7.48329 19.9664 7.64919 19.8981C7.81508 19.8299 7.96592 19.7293 8.09303 19.6022C8.22013 19.4751 8.321 19.324 8.38983 19.1576C8.45866 18.9912 8.49409 18.8128 8.49409 18.6325V16.8766C8.49409 16.5139 8.63738 16.1661 8.89243 15.9096C9.14748 15.6532 9.4934 15.5091 9.85409 15.5091H13.1459C13.3245 15.5091 13.5014 15.5445 13.6664 15.6132C13.8314 15.6819 13.9813 15.7827 14.1076 15.9096C14.2339 16.0366 14.334 16.1874 14.4024 16.3533C14.4707 16.5192 14.5059 16.697 14.5059 16.8766V18.6325C14.5059 18.8128 14.5413 18.9912 14.6102 19.1576C14.679 19.324 14.7799 19.4751 14.907 19.6022C15.0341 19.7293 15.1849 19.8299 15.3508 19.8981C15.5167 19.9664 15.6944 20.001 15.8736 20H18.64C19.0007 20 19.3466 19.8559 19.6017 19.5995C19.8567 19.343 20 18.9952 20 18.6325V10.218C19.9983 10.016 19.9517 9.81685 19.8634 9.63534C19.7752 9.45382 19.6476 9.2945 19.49 9.1691L12.2032 3.30302C12.0074 3.1284 11.7608 3.02211 11.5 3Z" stroke="url(#paint0_linear_206_7635)" stroke-width="2" stroke-linecap="round" stroke-linejoin="round"/>
<defs>
<linearGradient id="paint0_linear_206_7635" x1="19.2544" y1="40.7091" x2="-12.1294" y2="34.3855" gradientUnits="userSpaceOnUse">
<stop stop-color="#EC764F"/>
<stop offset="0.396134" stop-color="#72465D"/>
<stop offset="1" stop-color="#2E5DF3"/>
</linearGradient>
</defs>
</svg>
