<svg width="36" height="29" viewBox="0 0 36 29" fill="none" xmlns="http://www.w3.org/2000/svg">
<path d="M16.4773 27.5781L16.9073 28C13.4607 24.9684 10.7769 22.6823 8.67329 20.5724C6.56963 18.4624 4.95502 16.6609 3.82945 15.168C2.70388 13.675 1.95091 12.3877 1.57055 11.3061C1.19018 10.2244 1 9.17335 1 8.15286C1 6.19625 1.6986 4.51495 3.0958 3.10897C4.49296 1.70299 6.17747 1 8.14932 1C9.7163 1 11.1987 1.41895 12.5965 2.25684C13.9943 3.09473 15.2055 4.32871 16.2301 5.95879C17.2796 4.32582 18.4704 3.0911 19.8025 2.25464C21.1345 1.41822 22.5753 1 24.1247 1C26.0342 1 27.7731 1.67793 29.3411 3.03379C30.9091 4.38965 31.7009 6.0959 31.7164 8.15254H31.0178C30.9712 6.50723 30.3269 5.03711 29.0849 3.74219C27.8429 2.44727 26.1895 1.7998 24.1247 1.7998C22.479 1.7998 21.1244 2.23018 20.061 3.09092C18.9975 3.95166 17.9301 5.18184 16.8589 6.78145H15.6247C14.4447 5.1209 13.3619 3.87549 12.376 3.04522C11.3902 2.21494 9.98128 1.7998 8.14932 1.7998C6.30183 1.7998 4.78425 2.41792 3.59658 3.65416C2.4089 4.89037 1.81507 6.39177 1.81507 8.15834C1.81507 9.15321 2.00913 10.1627 2.39726 11.1867C2.78539 12.2108 3.5113 13.4008 4.57498 14.7566C5.63867 16.1125 7.1033 17.7273 8.96886 19.6012C10.8344 21.475 13.2548 23.783 16.2301 26.5252C17.1772 25.6721 18.2523 24.6856 19.4555 23.5659C20.6587 22.4462 21.6174 21.5512 22.3315 20.8809L22.4155 20.9633L22.611 21.1551L22.8064 21.3469L22.8904 21.4293C22.1763 22.1453 21.5785 22.7356 21.0973 23.2003C20.616 23.6649 20.0493 24.1943 19.3973 24.7885L16.4773 27.5781ZM29.1548 22.1148V17.1789H24.1247V16.3791H29.1548V11.4432H29.9699V16.3791H35V17.1789H29.9699V22.1148H29.1548Z" fill="url(#paint0_linear_1737_44542)" stroke="url(#paint1_linear_1737_44542)"/>
<defs>
<linearGradient id="paint0_linear_1737_44542" x1="33.5088" y1="60.8909" x2="-27.8566" y2="45.3207" gradientUnits="userSpaceOnUse">
<stop stop-color="#EC764F"/>
<stop offset="0.396134" stop-color="#72465D"/>
<stop offset="1" stop-color="#2E5DF3"/>
</linearGradient>
<linearGradient id="paint1_linear_1737_44542" x1="33.5088" y1="60.8909" x2="-27.8566" y2="45.3207" gradientUnits="userSpaceOnUse">
<stop stop-color="#EC764F"/>
<stop offset="0.396134" stop-color="#72465D"/>
<stop offset="1" stop-color="#2E5DF3"/>
</linearGradient>
</defs>
</svg>
