<svg width="24" height="24" viewBox="0 0 24 24" fill="none" xmlns="http://www.w3.org/2000/svg">
<path fill-rule="evenodd" clip-rule="evenodd" d="M16.04 16.85C16.56 16.38 17.24 16.08 18 16.08C19.61 16.08 20.92 17.39 20.92 19C20.92 20.61 19.61 21.92 18 21.92C16.39 21.92 15.08 20.61 15.08 19C15.08 18.78 15.11 18.56 15.16 18.35L8.04 14.19C7.5 14.69 6.79 15 6 15C4.34 15 3 13.66 3 12C3 10.34 4.34 9 6 9C6.79 9 7.5 9.31 8.04 9.81L15.09 5.7C15.04 5.47 15 5.24 15 5C15 3.34 16.34 2 18 2C19.66 2 21 3.34 21 5C21 6.66 19.66 8 18 8C17.21 8 16.5 7.69 15.96 7.19L8.91 11.3C8.96 11.53 9 11.76 9 12C9 12.24 8.96 12.47 8.91 12.7L16.04 16.85ZM5.96997 13.5C6.7984 13.5 7.46997 12.8284 7.46997 12C7.46997 11.1716 6.7984 10.5 5.96997 10.5C5.14154 10.5 4.46997 11.1716 4.46997 12C4.46997 12.8284 5.14154 13.5 5.96997 13.5ZM19.5 5C19.5 5.82843 18.8284 6.5 18 6.5C17.1716 6.5 16.5 5.82843 16.5 5C16.5 4.17157 17.1716 3.5 18 3.5C18.8284 3.5 19.5 4.17157 19.5 5ZM18 20.5C18.8284 20.5 19.5 19.8284 19.5 19C19.5 18.1716 18.8284 17.5 18 17.5C17.1716 17.5 16.5 18.1716 16.5 19C16.5 19.8284 17.1716 20.5 18 20.5Z" fill="url(#paint0_linear_670_70211)"/>
<defs>
<linearGradient id="paint0_linear_670_70211" x1="20.2105" y1="46.1863" x2="-13.259" y2="40.0925" gradientUnits="userSpaceOnUse">
<stop stop-color="#EC764F"/>
<stop offset="0.396134" stop-color="#72465D"/>
<stop offset="1" stop-color="#2E5DF3"/>
</linearGradient>
</defs>
</svg>
