<svg width="24" height="24" viewBox="0 0 24 24" fill="none" xmlns="http://www.w3.org/2000/svg">
<path fill-rule="evenodd" clip-rule="evenodd" d="M11.5012 3L11.4986 3C9.56144 3.00257 7.73563 3.8827 6.41139 5.39348C5.09081 6.90007 4.36631 8.91768 4.36419 10.999C4.36338 11.8017 4.48583 12.462 4.57296 12.932C4.59757 13.0647 4.61936 13.1822 4.63476 13.2834C4.70082 13.7176 4.69687 13.9972 4.4745 14.4305C4.41156 14.5532 4.33381 14.6168 4.02642 14.8526C3.74113 15.0715 3.26834 15.4412 3.04656 16.1417C2.89379 16.6242 2.90941 17.1757 2.93371 17.5113C2.94723 17.698 2.96736 17.8618 2.9841 17.9793C2.99252 18.0385 3.00024 18.0869 3.00609 18.1219L3.01337 18.1642L3.01573 18.1772L3.01654 18.1816L3.01685 18.1833L3.01698 18.184L3.01704 18.1843C3.01706 18.1844 3.01709 18.1846 3.99991 18L3.01709 18.1846C3.10589 18.6574 3.5188 19 3.99991 19H8.26011C8.32003 19.7337 8.67375 20.4106 9.23446 20.9093C9.84867 21.4557 10.6648 21.75 11.4999 21.75C12.3351 21.75 13.1511 21.4557 13.7653 20.9093C14.3261 20.4106 14.6798 19.7337 14.7397 19H18.9999C19.481 19 19.8939 18.6574 19.9827 18.1846L18.9999 18C19.9827 18.1846 19.9828 18.1844 19.9828 18.1843L19.9828 18.184L19.983 18.1833L19.9833 18.1816L19.9841 18.1772L19.9864 18.1642L19.9937 18.1219C19.9996 18.0869 20.0073 18.0385 20.0157 17.9793C20.0325 17.8618 20.0526 17.698 20.0661 17.5113C20.0904 17.1757 20.106 16.6242 19.9533 16.1417C19.7315 15.4412 19.2587 15.0715 18.9734 14.8526C18.666 14.6168 18.5883 14.5532 18.5253 14.4305C18.3029 13.9972 18.299 13.7176 18.3651 13.2834C18.3805 13.1822 18.4022 13.0647 18.4269 12.932L18.4269 12.932C18.514 12.462 18.6364 11.8017 18.6356 10.999C18.6335 8.91768 17.909 6.90007 16.5884 5.39348C15.2642 3.8827 13.4384 3.00257 11.5012 3ZM13.2284 19H9.77144C9.82385 19.2851 9.9772 19.5625 10.2314 19.7886C10.5545 20.0759 11.0096 20.25 11.4999 20.25C11.9902 20.25 12.4453 20.0759 12.7684 19.7886C13.0226 19.5625 13.176 19.2851 13.2284 19ZM18.0466 16.7454C18.0628 16.7968 18.0749 16.8846 18.0794 17H4.92044C4.92495 16.8846 4.93699 16.7968 4.95326 16.7454C4.97547 16.6753 5.0003 16.6263 5.2439 16.4394C5.2627 16.425 5.28339 16.4094 5.30569 16.3926C5.54604 16.2116 5.97378 15.8895 6.25388 15.3436C6.72458 14.4264 6.71969 13.6904 6.61201 12.9826C6.58356 12.7956 6.55203 12.6244 6.52125 12.4573L6.52125 12.4572C6.43975 12.0146 6.36358 11.601 6.36419 11.001C6.36585 9.37062 6.93545 7.82978 7.9154 6.71179C8.89134 5.59838 10.1841 5.00215 11.4999 5C12.8157 5.00215 14.1085 5.59838 15.0844 6.71179C16.0644 7.82978 16.634 9.37062 16.6356 11.001C16.6362 11.601 16.5601 12.0146 16.4786 12.4572C16.4478 12.6244 16.4163 12.7956 16.3878 12.9826C16.2801 13.6904 16.2752 14.4264 16.7459 15.3436C17.026 15.8895 17.4538 16.2116 17.6941 16.3926C17.7164 16.4094 17.7371 16.425 17.7559 16.4394C17.9995 16.6263 18.0243 16.6753 18.0466 16.7454Z" fill="url(#paint0_linear_206_20198)"/>
<defs>
<linearGradient id="paint0_linear_206_20198" x1="19.3288" y1="44.5909" x2="-12.5583" y2="38.7096" gradientUnits="userSpaceOnUse">
<stop stop-color="#EC764F"/>
<stop offset="0.396134" stop-color="#72465D"/>
<stop offset="1" stop-color="#2E5DF3"/>
</linearGradient>
</defs>
</svg>
