<svg width="24" height="24" viewBox="0 0 24 24" fill="none" xmlns="http://www.w3.org/2000/svg">
<path d="M10.4868 13.7621L10.4092 13.5908L10.2379 13.5132L7.95096 12.4761L10.2379 11.439L10.4092 11.3613L10.4868 11.1901L11.5239 8.90312L12.561 11.1901L12.6387 11.3613L12.8099 11.439L15.0969 12.4761L12.8099 13.5132L12.6387 13.5908L12.561 13.7621L11.5239 16.049L10.4868 13.7621ZM4.38679 16.7597H3.45145L3.97103 17.5374C5.5997 19.9754 8.37371 21.5866 11.5239 21.5866C15.3354 21.5866 18.5936 19.2343 19.9492 15.9214L20.8514 16.1285C19.3949 19.8587 15.767 22.5 11.5239 22.5C8.12648 22.5 5.13793 20.8068 3.32292 18.2165L2.41344 16.9185V18.5034V20.5866H1.5V15.8462H6.24032V16.7597H4.38679ZM12.9806 3.48626V2.56304C14.6601 2.81043 16.1959 3.47417 17.4983 4.44558L16.8463 5.09757C15.7201 4.28212 14.4067 3.71584 12.9806 3.48626ZM5.54937 4.44545C6.85306 3.47186 8.38903 2.80288 10.0672 2.56095V3.48626C8.64109 3.71584 7.32774 4.28212 6.20149 5.09757L5.54937 4.44545ZM1.61088 11.0194C1.85826 9.33987 2.52201 7.80415 3.49342 6.50166L4.14541 7.15366C3.32996 8.2799 2.76368 9.59326 2.5341 11.0194H1.61088ZM19.5544 6.50166C20.5258 7.80415 21.1896 9.33987 21.437 11.0194H20.5137C20.2842 9.59326 19.7179 8.2799 18.9024 7.15366L19.5544 6.50166Z" stroke="url(#paint0_linear_670_69949)"/>
<defs>
<linearGradient id="paint0_linear_670_69949" x1="21.0789" y1="48.5818" x2="-17.6893" y2="40.7704" gradientUnits="userSpaceOnUse">
<stop stop-color="#EC764F"/>
<stop offset="0.396134" stop-color="#72465D"/>
<stop offset="1" stop-color="#2E5DF3"/>
</linearGradient>
</defs>
</svg>
